#!OML:ASF H:\Punching\Project 1\Capture day 1\Session 1\female.ASF
:FULLY-SPECIFIED
:DEGREES
1987
root 2.60821 14.6343 -0.426276 7.08496 -12.6493 1.48034
lowerback 1.0696 2.65652 -4.09404
upperback -6.10258 3.32163 -0.625326
thorax -7.17197 1.85281 1.38437
lowerneck -9.78816 -2.96718 5.05019
upperneck 28.5248 -5.96409 1.85073
head 10.7073 -2.00136 -0.912074
rclavicle -4.86277e-014 1.2921e-014
rhumerus -2.8132 28.0303 -79.4547
rradius 128.462
rwrist -27.2327
rhand -15.4959 0.38825
rfingers 7.12502
rthumb 10.6864 -29.32
lclavicle -4.86277e-014 1.2921e-014
lhumerus 15.7505 -45.1679 83.1494
lradius 136.902
lwrist 15.2572
lhand -25.3907 12.4128
lfingers 7.12502
lthumb 1.1342 42.3895
rfemur 2.83029 -4.87422 0.373397
rtibia 24.1463
rfoot -19.6346 -23.2104
rtoes -16.1643
lfemur -36.4439 5.08142 -10.411
ltibia 46.4855
lfoot -10.0005 17.3536
ltoes -9.09592
1988
root 2.59302 14.6371 -0.445089 6.6828 -14.1548 1.81689
lowerback 1.23045 2.43778 -4.33677
upperback -6.08683 3.01269 -0.515097
thorax -7.25176 1.71757 1.65236
lowerneck -9.69668 -2.57004 5.27038
upperneck 28.4792 -5.2999 1.33664
head 10.6565 -1.74339 -1.05448
rclavicle 8.2359e-014 -1.5207e-014
rhumerus -3.70693 27.9837 -79.6238
rradius 129.737
rwrist -28.0572
rhand -16.2553 0.629925
rfingers 7.12502
rthumb 9.95386 -29.1147
lclavicle 8.2359e-014 -1.5207e-014
lhumerus 15.58 -44.907 83.2448
lradius 137.197
lwrist 15.337
lhand -25.5795 12.4546
lfingers 7.12502
lthumb 0.951907 42.4322
rfemur 1.76874 -4.97279 -0.286593
rtibia 25.3076
rfoot -19.913 -22.2081
rtoes -16.3803
lfemur -35.5087 5.80821 -10.5681
ltibia 46.2191
lfoot -9.97769 17.8938
ltoes -9.13314
1989
root 2.5743 14.6434 -0.465215 6.30104 -15.6273 2.14767
lowerback 1.35806 2.22146 -4.52342
upperback -6.07892 2.70854 -0.440864
thorax -7.31214 1.58042 1.85408
lowerneck -9.59299 -2.18473 5.526
upperneck 28.4253 -4.66807 0.85313
head 10.6061 -1.49238 -1.19616
rclavicle -6.59717e-015 1.49089e-016
rhumerus -4.41042 27.8702 -79.7581
rradius 130.782
rwrist -28.8655
rhand -17.0175 0.820117
rfingers 7.12502
rthumb 9.21844 -28.9584
lclavicle -6.59717e-015 1.49089e-016
lhumerus 15.4678 -44.6672 83.2647
lradius 137.432
lwrist 15.384
lhand -25.6511 12.379
lfingers 7.12502
lthumb 0.882761 42.3569
rfemur 0.715766 -5.05482 -0.877552
rtibia 26.3984
rfoot -20.2042 -21.24
rtoes -16.5432
lfemur -34.5937 6.53415 -10.6941
ltibia 45.9262
lfoot -9.93693 18.4027
ltoes -9.16638
1990
root 2.55149 14.6463 -0.488247 5.94133 -17.0611 2.47565
lowerback 1.45291 2.00495 -4.66775
upperback -6.07493 2.40547 -0.400842
thorax -7.35113 1.44012 1.99865
lowerneck -9.4924 -1.812 5.81263
upperneck 28.3664 -4.07204 0.407879
head 10.5602 -1.24926 -1.33429
rclavicle -9.19496e-015 -9.75287e-015
rhumerus -4.92446 27.6848 -79.86
rradius 131.607
rwrist -29.5934
rhand -17.6652 1.00575
rfingers 7.12502
rthumb 8.59341 -28.7994
lclavicle -9.19496e-015 -9.75287e-015
lhumerus 15.4252 -44.4535 83.2017
lradius 137.602
lwrist 15.364
lhand -25.6529 12.254
lfingers 7.12502
lthumb 0.880987 42.2319
rfemur -0.333155 -5.10926 -1.41004
rtibia 27.4356
rfoot -20.5096 -20.3034
rtoes -16.6729
lfemur -33.7261 7.24936 -10.7773
ltibia 45.6165
lfoot -9.87071 18.8671
ltoes -9.10857
1991
root 2.52431 14.6506 -0.513821 5.60338 -18.4512 2.81015
lowerback 1.51707 1.79812 -4.76873
upperback -6.09448 2.11513 -0.41235
thorax -7.39239 1.30231 2.06513
lowerneck -9.32569 -1.46971 6.13104
upperneck 28.2876 -3.53617 0.018504
head 10.4986 -1.02433 -1.46401
rclavicle 1.76452e-014 4.64659e-015
rhumerus -5.33605 27.3982 -79.9776
rradius 132.222
rwrist -30.1744
rhand -18.0782 1.12451
rfingers 7.12502
rthumb 8.19485 -28.6966
lclavicle 1.76452e-014 4.64659e-015
lhumerus 15.3933 -44.3099 83.0997
lradius 137.718
lwrist 15.2905
lhand -25.6218 12.1241
lfingers 7.12502
lthumb 0.911035 42.1019
rfemur -1.37314 -5.12798 -1.89092
rtibia 28.4173
rfoot -20.8276 -19.3937
rtoes -16.779
lfemur -32.8777 7.91812 -10.8195
ltibia 45.2597
lfoot -9.77612 19.2849
ltoes -8.95228
1992
root 2.49245 14.6561 -0.542588 5.28827 -19.798 3.14946
lowerback 1.55248 1.59934 -4.83989
upperback -6.13664 1.83536 -0.462883
thorax -7.43851 1.16711 2.07391
lowerneck -9.08525 -1.15747 6.46186
upperneck 28.1799 -3.05449 -0.314261
head 10.4159 -0.816992 -1.58097
rclavicle 4.53353e-014 5.2181e-015
rhumerus -5.66854 27.0511 -80.1036
rradius 132.638
rwrist -30.5359
rhand -18.2554 1.1376
rfingers 7.12502
rthumb 8.0238 -28.6901
lclavicle 4.53353e-014 5.2181e-015
lhumerus 15.3588 -44.2194 82.9766
lradius 137.79
lwrist 15.1836
lhand -25.5856 11.9958
lfingers 7.12502
lthumb 0.946019 41.9735
rfemur -2.41996 -5.0848 -2.31845
rtibia 29.376
rfoot -21.1597 -18.5224
rtoes -16.9125
lfemur -32.0415 8.51404 -10.8071
ltibia 44.8523
lfoot -9.65325 19.651
ltoes -8.73114
1993
root 2.45566 14.663 -0.575214 4.99527 -21.0979 3.49175
lowerback 1.5647 1.38998 -4.91655
upperback -6.18705 1.5416 -0.517882
thorax -7.47895 1.02525 2.08287
lowerneck -8.81934 -0.860823 6.76931
upperneck 28.055 -2.59826 -0.607522
head 10.326 -0.619001 -1.68298
rclavicle -6.06914e-015 2.08724e-014
rhumerus -5.88047 26.7331 -80.2063
rradius 132.851
rwrist -30.6352
rhand -18.2342 1.04153
rfingers 7.12502
rthumb 8.04434 -28.7854
lclavicle -6.06914e-015 2.08724e-014
lhumerus 15.3209 -44.1222 82.8461
lradius 137.82
lwrist 15.025
lhand -25.5931 11.8686
lfingers 7.12502
lthumb 0.938762 41.8462
rfemur -3.46715 -4.98 -2.69284
rtibia 30.2978
rfoot -21.4708 -17.6986
rtoes -17.1485
lfemur -31.2004 9.01402 -10.7307
ltibia 44.3664
lfoot -9.47661 19.9619
ltoes -8.47099
